<svg width="24" height="20" viewBox="0 0 24 20" fill="none" xmlns="http://www.w3.org/2000/svg">
<path d="M20.3303 2.42851C18.7535 1.7066 17.0889 1.19445 15.3789 0.905151C15.1449 1.32344 14.9332 1.7538 14.7447 2.19444C12.9233 1.91997 11.071 1.91997 9.24963 2.19444C9.06097 1.75385 8.84926 1.32349 8.61537 0.905151C6.90435 1.1969 5.23861 1.71026 3.6602 2.43229C0.526645 7.06844 -0.322812 11.5894 0.101917 16.0463C1.937 17.4021 3.99099 18.4332 6.17459 19.0949C6.66628 18.4336 7.10135 17.732 7.47521 16.9976C6.76512 16.7324 6.07977 16.4052 5.42707 16.0198C5.59885 15.8952 5.76685 15.7669 5.92919 15.6423C7.82839 16.5354 9.90126 16.9985 12 16.9985C14.0987 16.9985 16.1716 16.5354 18.0708 15.6423C18.235 15.7763 18.403 15.9047 18.5729 16.0198C17.9189 16.4059 17.2323 16.7337 16.521 16.9995C16.8944 17.7336 17.3295 18.4345 17.8216 19.0949C20.0071 18.4359 22.0626 17.4052 23.898 16.0481C24.3964 10.8797 23.0467 6.4002 20.3303 2.42851ZM8.0132 13.3053C6.82962 13.3053 5.8518 12.2312 5.8518 10.9099C5.8518 9.58849 6.79564 8.50496 8.00942 8.50496C9.2232 8.50496 10.1935 9.58849 10.1727 10.9099C10.1519 12.2312 9.21943 13.3053 8.0132 13.3053ZM15.9868 13.3053C14.8013 13.3053 13.8273 12.2312 13.8273 10.9099C13.8273 9.58849 14.7711 8.50496 15.9868 8.50496C17.2024 8.50496 18.1652 9.58849 18.1444 10.9099C18.1236 12.2312 17.193 13.3053 15.9868 13.3053Z" fill="#6B7280"/>
</svg>
