<svg width="24" height="24" viewBox="0 0 24 24" fill="none" xmlns="http://www.w3.org/2000/svg">
<path fill-rule="evenodd" clip-rule="evenodd" d="M11.9642 0.244904C5.34833 0.244904 0 5.63266 0 12.298C0 17.626 3.42686 22.1361 8.18082 23.7323C8.77518 23.8523 8.9929 23.473 8.9929 23.1539C8.9929 22.8745 8.97331 21.9167 8.97331 20.9187C5.64514 21.6372 4.95208 19.4819 4.95208 19.4819C4.41722 18.085 3.62473 17.726 3.62473 17.726C2.53543 16.9876 3.70408 16.9876 3.70408 16.9876C4.91241 17.0674 5.54645 18.2248 5.54645 18.2248C6.61592 20.0606 8.33926 19.5419 9.03257 19.2225C9.13151 18.4443 9.44865 17.9055 9.78539 17.6062C7.13094 17.3268 4.33812 16.2891 4.33812 11.6594C4.33812 10.3423 4.81322 9.26474 5.56604 8.4267C5.44727 8.12743 5.03118 6.88997 5.68506 5.23372C5.68506 5.23372 6.69527 4.91437 8.97306 6.47094C9.94827 6.20711 10.954 6.07289 11.9642 6.07176C12.9744 6.07176 14.0042 6.2116 14.9552 6.47094C17.2332 4.91437 18.2434 5.23372 18.2434 5.23372C18.8973 6.88997 18.481 8.12743 18.3622 8.4267C19.1349 9.26474 19.5904 10.3423 19.5904 11.6594C19.5904 16.2891 16.7976 17.3067 14.1233 17.6062C14.5592 17.9853 14.9353 18.7036 14.9353 19.8411C14.9353 21.4575 14.9158 22.7547 14.9158 23.1536C14.9158 23.473 15.1337 23.8523 15.7278 23.7326C20.4818 22.1358 23.9087 17.626 23.9087 12.298C23.9282 5.63266 18.5603 0.244904 11.9642 0.244904Z" fill="#6B7280"/>
</svg>
