<svg width="18" height="18" viewBox="0 0 18 18" fill="none" xmlns="http://www.w3.org/2000/svg">
<path d="M2.99998 0.599976C2.36346 0.599976 1.75301 0.852832 1.30292 1.30292C0.852832 1.75301 0.599976 2.36346 0.599976 2.99998V5.39998C0.599976 6.0365 0.852832 6.64694 1.30292 7.09703C1.75301 7.54712 2.36346 7.79998 2.99998 7.79998H5.39998C6.0365 7.79998 6.64694 7.54712 7.09703 7.09703C7.54712 6.64694 7.79998 6.0365 7.79998 5.39998V2.99998C7.79998 2.36346 7.54712 1.75301 7.09703 1.30292C6.64694 0.852832 6.0365 0.599976 5.39998 0.599976H2.99998ZM2.99998 10.2C2.36346 10.2 1.75301 10.4528 1.30292 10.9029C0.852832 11.353 0.599976 11.9635 0.599976 12.6V15C0.599976 15.6365 0.852832 16.2469 1.30292 16.697C1.75301 17.1471 2.36346 17.4 2.99998 17.4H5.39998C6.0365 17.4 6.64694 17.1471 7.09703 16.697C7.54712 16.2469 7.79998 15.6365 7.79998 15V12.6C7.79998 11.9635 7.54712 11.353 7.09703 10.9029C6.64694 10.4528 6.0365 10.2 5.39998 10.2H2.99998ZM10.2 2.99998C10.2 2.36346 10.4528 1.75301 10.9029 1.30292C11.353 0.852832 11.9635 0.599976 12.6 0.599976H15C15.6365 0.599976 16.2469 0.852832 16.697 1.30292C17.1471 1.75301 17.4 2.36346 17.4 2.99998V5.39998C17.4 6.0365 17.1471 6.64694 16.697 7.09703C16.2469 7.54712 15.6365 7.79998 15 7.79998H12.6C11.9635 7.79998 11.353 7.54712 10.9029 7.09703C10.4528 6.64694 10.2 6.0365 10.2 5.39998V2.99998ZM10.2 12.6C10.2 11.9635 10.4528 11.353 10.9029 10.9029C11.353 10.4528 11.9635 10.2 12.6 10.2H15C15.6365 10.2 16.2469 10.4528 16.697 10.9029C17.1471 11.353 17.4 11.9635 17.4 12.6V15C17.4 15.6365 17.1471 16.2469 16.697 16.697C16.2469 17.1471 15.6365 17.4 15 17.4H12.6C11.9635 17.4 11.353 17.1471 10.9029 16.697C10.4528 16.2469 10.2 15.6365 10.2 15V12.6Z" fill="#6B7280"/>
</svg>
